<?xml version="1.0" standalone="no"?>
<!DOCTYPE svg PUBLIC "-//W3C//DTD SVG 20010904//EN"
 "http://www.w3.org/TR/2001/REC-SVG-20010904/DTD/svg10.dtd">
<svg version="1.0" xmlns="http://www.w3.org/2000/svg"
 width="256.000000pt" height="256.000000pt" viewBox="0 0 256.000000 256.000000"
 preserveAspectRatio="xMidYMid meet">
<metadata>
Created by potrace 1.11, written by Peter Selinger 2001-2013
</metadata>
<g transform="translate(0.000000,256.000000) scale(0.100000,-0.100000)"
fill="#000000" stroke="none">
<path d="M1298 2355 c-2 -1 -35 -5 -75 -9 -108 -9 -255 -43 -342 -80 -136 -58
-161 -70 -161 -79 0 -4 -4 -6 -9 -3 -5 3 -14 -1 -21 -9 -7 -8 -19 -15 -26 -15
-8 0 -14 -4 -14 -8 0 -4 -12 -15 -28 -24 -15 -9 -39 -27 -53 -40 -14 -13 -36
-33 -50 -44 -22 -18 -77 -76 -142 -152 -15 -18 -24 -32 -20 -32 5 0 -1 -7 -11
-15 -11 -8 -16 -15 -12 -15 4 0 -2 -12 -13 -26 -12 -15 -21 -31 -21 -36 0 -5
-7 -16 -15 -25 -8 -8 -13 -19 -10 -24 4 -5 2 -9 -3 -9 -8 0 -44 -74 -44 -90 0
-3 -4 -11 -10 -17 -6 -7 -7 -13 -2 -13 5 0 2 -5 -7 -10 -10 -6 -15 -20 -14
-35 2 -14 0 -25 -4 -25 -4 0 -7 -8 -8 -17 -1 -10 -7 -31 -14 -48 -6 -16 -13
-41 -15 -55 -1 -14 -5 -38 -8 -55 -3 -16 -7 -44 -10 -62 -2 -18 -7 -37 -11
-43 -8 -13 -39 -12 449 -14 l428 -1 18 -23 c11 -13 17 -32 14 -45 -3 -12 -7
-33 -9 -47 -2 -14 -8 -40 -14 -57 -5 -18 -7 -33 -3 -33 3 0 1 -5 -6 -12 -7 -7
-12 -22 -12 -35 0 -13 -5 -23 -11 -23 -8 0 -8 -5 1 -15 7 -8 8 -15 3 -15 -5 0
-10 -6 -11 -12 -4 -54 -31 -88 -69 -89 -16 -1 -41 -2 -58 -4 -16 -1 -79 -6
-140 -9 -60 -4 -130 -9 -155 -11 -25 -2 -92 -6 -150 -9 -58 -4 -132 -9 -165
-11 -33 -3 -93 -7 -134 -10 -70 -4 -113 -21 -83 -32 6 -3 9 -9 6 -15 -3 -5 -8
-53 -10 -106 -1 -53 -5 -167 -8 -253 l-6 -156 1106 0 1105 0 22 31 c12 17 25
33 29 34 4 2 8 10 8 17 0 8 7 21 16 29 8 9 12 16 9 16 -4 0 3 17 15 37 12 21
31 60 42 88 11 27 27 59 36 69 9 11 11 16 5 12 -7 -4 -13 -2 -13 3 0 6 5 11
12 11 6 0 8 3 5 6 -3 4 -1 16 5 28 7 11 13 23 13 26 7 30 19 67 24 75 3 6 7
16 8 23 2 6 4 18 6 25 1 6 6 18 10 25 5 6 5 17 2 22 -3 6 -1 10 5 10 7 0 10 7
6 15 -3 8 -2 15 2 15 4 0 8 8 9 18 0 9 4 28 8 42 3 14 8 32 10 40 2 8 4 16 5
18 2 1 4 11 5 22 1 11 4 21 5 23 1 1 3 13 5 27 2 14 6 36 9 50 15 63 19 102
19 205 0 142 -6 235 -15 235 -4 0 -8 10 -8 23 0 40 -3 57 -12 57 -4 0 -8 11
-8 25 0 14 -5 25 -11 25 -6 0 -9 7 -5 15 3 8 -2 21 -10 30 -9 8 -13 15 -9 15
8 0 -65 140 -82 158 -7 7 -13 16 -13 20 0 4 -14 22 -31 40 -16 17 -27 32 -24
32 3 0 -23 28 -57 63 -69 68 -196 167 -215 167 -7 0 -13 5 -13 10 0 6 -6 10
-14 10 -8 0 -16 3 -18 8 -4 10 -156 78 -183 82 -3 0 -24 8 -47 16 -88 31 -234
55 -355 58 -67 2 -124 2 -125 1z m-331 -283 c-7 -10 -37 -46 -66 -82 -88 -109
-122 -147 -134 -147 -7 0 -59 -4 -116 -8 l-104 -8 34 45 c37 49 128 122 196
156 56 29 185 72 196 65 4 -3 2 -12 -6 -21z"/>
</g>
</svg>
